<mxfile host="app.diagrams.net" modified="2023-11-28T02:28:50.541Z" agent="Mozilla/5.0 (Windows NT 10.0; Win64; x64) AppleWebKit/537.36 (KHTML, like Gecko) Chrome/117.0.0.0 Safari/537.36" version="22.1.4" etag="hPoGicWh2A8i3TmRcLEL" type="github">
  <diagram name="第 1 页" id="smU-jeKc8l7mdq0qI46P">
    <mxGraphModel>
      <root>
        <mxCell id="0" />
        <mxCell id="1" parent="0" />
      </root>
    </mxGraphModel>
  </diagram>
</mxfile>
